<svg width="16" height="16" viewBox="0 0 16 16" fill="none" xmlns="http://www.w3.org/2000/svg">
<path d="M15.9961 16V15.9993H16.0001V10.1313C16.0001 7.26065 15.3821 5.04932 12.0261 5.04932C10.4128 5.04932 9.33009 5.93465 8.88809 6.77398H8.84143V5.31732H5.65942V15.9993H8.97276V10.71C8.97276 9.31732 9.23676 7.97065 10.9614 7.97065C12.6608 7.97065 12.6861 9.55998 12.6861 10.7993V16H15.9961Z" fill="#F4F4FD"/>
<path d="M0.264038 5.31787H3.58137V15.9999H0.264038V5.31787Z" fill="#F4F4FD"/>
<path d="M1.92139 0C0.860728 0 6.10352e-05 0.860667 6.10352e-05 1.92133C6.10352e-05 2.982 0.860728 3.86067 1.92139 3.86067C2.98206 3.86067 3.84273 2.982 3.84273 1.92133C3.84206 0.860667 2.98139 0 1.92139 0V0Z" fill="#F4F4FD"/>
</svg>
